<?xml version="1.0" encoding="UTF-8"?>
<svg id="Layer_1" data-name="Layer 1" xmlns="http://www.w3.org/2000/svg" viewBox="0 0 1081.42 1091.99">
  <defs>
    <style>
      .cls-1 {
        fill: #f6b11a;
      }

      .cls-2 {
        fill: #fff;
      }

      .cls-3 {
        fill: #07604e;
      }

      .cls-4 {
        fill: #fffffb;
      }
    </style>
  </defs>
  <path class="cls-3" d="M854.05,528.62l.08-14.54c2.95-6.35,4.45-13.42,4.45-21.05,0-9.03-2.38-17.53-6.89-24.69v-79.78l-63.99-35.01c-2.02-4.75-7.31-19.57-2.59-35.18l.04-.14c.13-.47.26-.79.33-.97l3.97-6.19c1.04-1.65,2.56-3.59,4.23-5.72,1.66-2.12,3.38-4.32,5.09-6.81,7.61-11.13,12.26-24.1,13.09-36.48.62-8.29-.47-17.22-3.14-25.81l-1.3-4.22-.12-.37c-3.79-11.4-11.13-20.54-20.76-25.83,4.38-19.23,3.5-38.55-2.58-54.84-5.04-13.35-12.51-23.22-22.21-29.35l-43.52-27.5,13.54,49.67c5.49,20.14-4.58,43.92-15.15,64.54h0c-7.95,14.97-17.82,33.59-17.45,55.14.04,22.87,11.56,51.53,36.76,60.4h.03c.08.5.17,1,.27,1.49l-175.53-96.04-278.35,168.4v33.08h-63.73v85.21h63.05v144.93l-.3-.03.3,23.7v176.98h.9l-.02,4.06,20.84-.79c8.69-.33,17.5-.5,26.19-.5,3.63,0,6.79.03,9.38.07v11.12l20.54-.55c6.66-.18,13.27-.27,19.65-.27,14.15,0,22.72.44,23.64.49l21.3,1.22-.11-14.41c10.85,6.65,24.17,10.01,39.74,10.01,22.66,0,40.96-7.07,53.4-20.52,9.25,13.78,23.38,21.02,41.22,21.02,2.77,0,5.51-.22,8.21-.65l-.09,3.54,20.95-.43c5.41-.11,10.53-.17,15.21-.17,11.88,0,17.36.35,17.56.37l21.67,1.55-.12-10.02c9.94,4.67,21.81,7.03,35.45,7.03,17.7,0,33.13-4.4,44.64-12.72,2.92-2.12,5.6-4.49,8.01-7.08,12.46,12.33,29.62,18.57,51.12,18.57,39.27,0,66.75-23.42,71.71-61.12,0,0,1.37-280.89,1.38-282.81Z"/>
  <g>
    <path class="cls-2" d="M738.86,265.39c3.62-13.58,11.19-23.28,17.86-36.3,3.6-7,6.71-14.44,8.96-22.28,4.55-15.65,5.36-33.27-.4-48.74-2.84-7.53-7.3-15.16-14.18-19.51,7.31,26.81-4.52,55.28-16.7,79.02-7.11,13.39-15.53,29.19-15.2,45.77-.01,15.75,7.69,36.15,23.41,41.69-2.08-3.38-3.33-6.78-4.2-10.18-2.35-9.6-1.89-20.33.47-29.48Z"/>
    <path class="cls-2" d="M789.62,242.16l-1.28-4.16c-2-6-5.89-11.64-11.52-14.67-1.37-.7-2.79-1.24-4.24-1.52,4.03,4.32,5.77,9.32,6.43,14.24.69,9.94.91,20.45-2.65,29.81-2.46,7.07-6.85,13.69-11.21,19.89-3.36,4.89-5.84,10.77-8.08,16.25-5.2,13.79.02,33.86,12.09,42.21-4.87-9.27-5.69-21.04-3.4-30.86.6-2.32,1.45-4.46,2.51-6.27,0,0,4.29-6.69,4.29-6.69,2.86-4.51,6.68-8.7,9.71-13.12,5.27-7.7,9.03-17.1,9.65-26.62.47-6.2-.51-12.72-2.3-18.5Z"/>
    <g>
      <path class="cls-1" d="M448.4,660.17s.43-45.79-.65-80.51c-.65-19.97-8.68-33.64-24.31-33.64-11.72,0-19.75,5.86-25.17,14.97,0-29.73.87-51.65.87-51.65-25.82.43-36.89.22-36.89.22.87,79.64-.43,142.14-.43,142.14,26.69-.43,38.63-.22,38.63-.22,0,0-.22-31.47.22-63.8,0-5.64,1.52-7.16,4.77-7.16,3.04,0,4.56,1.74,4.56,7.16.43,34.29,0,72.05,0,72.05,25.17,0,38.41.43,38.41.43Z"/>
      <path class="cls-1" d="M498.09,546.03c-33.64,0-46.44,24.96-46.44,55.34s9.98,56.86,46.66,56.86c24.74,0,42.32-13.67,45.57-38.41-18.88-.65-39.06-.87-39.06-.87-.43,9.33-2.82,12.37-6.29,12.37-4.56,0-6.73-5.21-7.38-19.75,31.47-.43,52.08-.43,52.08-.43,2.6-36.89-7.6-65.1-45.14-65.1ZM503.73,592.47c-4.34.22-8.03.22-12.59.22.43-17.36,2.39-21.7,6.73-21.7,3.91,0,6.08,6.73,5.86,21.48Z"/>
      <path class="cls-1" d="M358,673.93c.25,32.61.74,62.51.74,88.2-6.42,0-12.35-.25-12.35-.25-.5-47.68-.74-79.31-.74-79.31,0,0-.02,0-.02,0v-186.53h176.84v-45.21h-177.52v-17.8l217.34-131.49,226.84,124.11v32.72h42.58v-57.96l-270.48-147.99-258.85,156.6v41.8h-63.73v45.21h63.05v186.78s-.02,0-.02,0c0,.58.01,1.15.02,1.72v157.07h.98c0,2.14,0,3.28,0,3.28,25.94-.99,44.72-.25,44.72-.25l-.74-44.96c5.19-.25,9.14-.25,12.35-.25v55.59c27.67-.74,44.96.25,44.96.25-.74-101.05-.74-181.59-.74-181.59-29.15.49-45.21.25-45.21.25Z"/>
      <path class="cls-1" d="M464.48,724.58c-34.59,0-53.12,22.98-53.12,61.77s12.85,65.72,52.38,65.72c33.11,0,53.12-17.05,53.12-63.74,0-38.54-15.32-63.74-52.38-63.74ZM464.23,823.9c-4.94,0-6.92-4.2-6.92-37.06,0-27.42,1.73-32.86,6.92-32.86,4.69,0,6.67,5.44,6.67,34.59,0,31.13-2.47,35.33-6.67,35.33Z"/>
      <path class="cls-1" d="M621.12,725.07c-32.12.25-43.98-.74-43.98-.74,0,0,2.23,36.32,1.73,80.05,0,7.41-1.73,10.87-5.19,10.87-4.94,0-8.15-6.42-8.15-49.91,0-9.64.25-24.46,1.48-36.81-30.14-1.24-40.77-2.96-40.77-2.96-2.22,19.27-3.21,36.57-3.21,55.59,0,53.12,11.12,71.4,35.33,71.4,11.86,0,23.47-6.67,28.91-20.01,0,13.09-.25,22.48-.25,22.48,24.21-.49,34.59.25,34.59.25-.99-81.53-.49-130.2-.49-130.2Z"/>
      <path class="cls-1" d="M686.34,777.2c-11.86-3.71-16.8-8.4-16.8-14.33,0-3.46,1.98-7.16,6.92-7.16,5.93,0,7.66,6.67,7.17,16.8,22.23-.25,39.53.99,39.53.99.99-30.39-15.07-50.15-46.2-50.15s-47.93,16.55-47.93,38.54c0,19.77,9.39,31.38,36.32,39.28,14.82,4.45,18.04,8.4,18.04,13.59s-2.96,7.91-6.18,7.91c-6.92,0-8.15-6.18-7.91-16.8-27.67-1.73-41.51-1.73-41.51-1.73-.49,35.33,18.28,49.66,49.41,49.66,25.2,0,46.94-10.87,46.94-38.79,0-18.28-10.13-29.4-37.8-37.8Z"/>
      <path class="cls-1" d="M781.21,821.92c-5.19,0-7.66-5.93-8.4-22.48,35.83-.49,59.3-.49,59.3-.49,2.96-42-8.65-74.12-51.39-74.12-38.29,0-52.87,28.41-52.87,63s11.37,64.73,53.12,64.73c28.17,0,48.18-15.56,51.88-43.73-21.5-.74-44.47-.99-44.47-.99-.5,10.62-3.21,14.08-7.17,14.08ZM780.47,753.24c4.45,0,6.92,7.66,6.67,24.46-4.94.25-9.14.25-14.33.25.5-19.77,2.72-24.71,7.66-24.71Z"/>
      <path class="cls-4" d="M665.02,657.31c12.83,0,23.14-6.04,28.93-18.87-.25,13.08-.5,21.63-.5,21.63,22.64,0,35.47.25,35.47.25-.5-97.1.75-176.59.75-176.59-37.73,1.01-46.79.25-46.79.25,1.51,26.16,2.26,45.03,2.77,58.36-5.54-8.3-13.58-13.84-23.9-13.84-27.42,0-39.49,25.41-39.49,61.13,0,48.8,17.11,67.67,42.76,67.67ZM676.84,559.2c5.54,0,7.55,11.07,7.55,32.95,0,32.2-3.27,36.47-6.79,36.47-4.53,0-7.04-9.81-7.04-33.96,0-28.17,2.01-35.47,6.29-35.47Z"/>
      <path class="cls-4" d="M737.21,485.5s1.01,50.31.25,165.27c0,0,15.34-.25,44.27.75,0,0-1.01-41.25,0-164.77,0,0-15.34,0-44.53-1.26Z"/>
      <path class="cls-4" d="M834.05,528.51c-29.43.5-44.02.25-44.02.25,1.01,92.32.76,127.03.76,127.03,25.41-.25,44.27-.25,44.27-.25-1.26-82.26-1.01-127.03-1.01-127.03Z"/>
      <path class="cls-4" d="M785.51,492.54c0,17.11,9.05,26.66,27.17,26.66s25.91-11.57,25.91-26.16c0-13.84-9.06-25.16-25.91-25.16s-27.17,9.06-27.17,24.65Z"/>
      <rect class="cls-4" x="576.21" y="518.56" width="40.67" height="141.61"/>
      <circle class="cls-4" cx="596.55" cy="473.44" r="36.25" transform="translate(-159.81 384.33) rotate(-31.72)"/>
    </g>
  </g>
</svg>